<svg width="19" height="18" viewBox="0 0 19 18" fill="none" xmlns="http://www.w3.org/2000/svg">
<path d="M10.6309 2.63248L11.9509 5.27248C12.1309 5.63998 12.6109 5.99248 13.0159 6.05998L15.4084 6.45748C16.9384 6.71248 17.2984 7.82248 16.1959 8.91748L14.3359 10.7775C14.0209 11.0925 13.8484 11.7 13.9459 12.135L14.4784 14.4375C14.8984 16.26 13.9309 16.965 12.3184 16.0125L10.0759 14.685C9.67093 14.445 9.00343 14.445 8.59093 14.685L6.34843 16.0125C4.74343 16.965 3.76843 16.2525 4.18843 14.4375L4.72093 12.135C4.81843 11.7 4.64593 11.0925 4.33093 10.7775L2.47093 8.91748C1.37593 7.82248 1.72843 6.71248 3.25843 6.45748L5.65093 6.05998C6.04843 5.99248 6.52843 5.63998 6.70843 5.27248L8.02843 2.63248C8.74843 1.19998 9.91843 1.19998 10.6309 2.63248Z" fill="#FFCD1A"/>
</svg>
